# xmcd CD database file generated by OrangeCD 6.5
#
# Track frame offsets:
#	150
#	19538
#	31399
#	43810
#	55063
#	68070
#	77474
#	90065
#	103838
#	119143
#	126713
#
# Disc length: 1990 seconds
#
# Revision: 1
# Processed by: cddbd v1.5.2PL0 Copyright (c) Steve Scherf et al.
# Submitted via: OrangeCD 6.5
#
DISCID=8d07c40b
DTITLE=Stein Urheim - Three Sets Of Music
DYEAR=2009
DGENRE=Blues
TTITLE0=At The Festival
TTITLE1=Head Without A Face
TTITLE2=The Swimming Song
TTITLE3=Mess Around
TTITLE4=Carol
TTITLE5=Wild Man On The Loose
TTITLE6=I'm Satisfied
TTITLE7=Saskatoon
TTITLE8=Such A Night
TTITLE9=C.R. Avery - At The Festival (C.R. Avery)
TTITLE10=As The Record Stops
EXTD=
EXTT0=
EXTT1=
EXTT2=
EXTT3=
EXTT4=
EXTT5=
EXTT6=
EXTT7=
EXTT8=
EXTT9=
EXTT10=
PLAYORDER=
